<svg width="40" height="40" viewBox="0 0 40 40" fill="none" xmlns="http://www.w3.org/2000/svg">
    <rect width="40" height="40" rx="6" fill="#0A0B09"/>
    <path d="M7 9.99766V27H34.5V16.8284C34.5 16.298 34.2893 15.7893 33.9142 15.4142L27.0858 8.58579C26.7107 8.21071 26.202 8 25.6716 8H9C7.89543 8 7 8.89309 7 9.99766Z"
          fill="url(#paint0_linear_21_5)" fill-opacity="0.14"/>
    <path d="M34.5 27V16.8284C34.5 16.298 34.2893 15.7893 33.9142 15.4142L27.0858 8.58579C26.7107 8.21071 26.202 8 25.6716 8H9C7.89543 8 7 8.89309 7 9.99766C7 14.7982 7 21.6311 7 25.001C7 26.1055 7.89543 27 9 27H17"
          stroke="#8DC63F"/>
    <path d="M34.5 27V16.8284C34.5 16.298 34.2893 15.7893 33.9142 15.4142L27.0858 8.58579C26.7107 8.21071 26.202 8 25.6716 8H9C7.89543 8 7 8.89309 7 9.99766C7 14.7982 7 21.6311 7 25.001C7 26.1055 7.89543 27 9 27H17"
          stroke="url(#paint1_linear_21_5)"/>
    <path d="M28 15.5H33.5L27 9V14.5C27 15.0523 27.4477 15.5 28 15.5Z" fill="#506730" fill-opacity="0.13"/>
    <path d="M11.869 15.8635L10.434 15.181V14.943L11.869 14.2605V14.544L10.623 15.1145V15.0095L11.869 15.58V15.8635ZM13.0431 16.042C12.8634 16.042 12.7059 15.9965 12.5706 15.9055C12.4352 15.8145 12.3372 15.6908 12.2766 15.5345L12.4971 15.4295C12.5507 15.5438 12.6254 15.6348 12.7211 15.7025C12.8191 15.7702 12.9264 15.804 13.0431 15.804C13.1551 15.804 13.2496 15.7772 13.3266 15.7235C13.4036 15.6675 13.4421 15.5952 13.4421 15.5065C13.4421 15.4412 13.4234 15.3898 13.3861 15.3525C13.3487 15.3128 13.3056 15.2825 13.2566 15.2615C13.2076 15.2405 13.1644 15.2253 13.1271 15.216L12.8576 15.139C12.6849 15.09 12.5601 15.0212 12.4831 14.9325C12.4061 14.8438 12.3676 14.7412 12.3676 14.6245C12.3676 14.5148 12.3956 14.4192 12.4516 14.3375C12.5076 14.2558 12.5834 14.1928 12.6791 14.1485C12.7747 14.1042 12.8809 14.082 12.9976 14.082C13.1562 14.082 13.2997 14.124 13.4281 14.208C13.5587 14.2897 13.6509 14.404 13.7046 14.551L13.4806 14.656C13.4339 14.551 13.3662 14.4693 13.2776 14.411C13.1912 14.3503 13.0944 14.32 12.9871 14.32C12.8821 14.32 12.7981 14.3468 12.7351 14.4005C12.6721 14.4542 12.6406 14.5218 12.6406 14.6035C12.6406 14.6665 12.6569 14.7167 12.6896 14.754C12.7222 14.7913 12.7596 14.8193 12.8016 14.838C12.8459 14.8567 12.8844 14.8707 12.9171 14.88L13.2286 14.971C13.3802 15.0153 13.4981 15.0842 13.5821 15.1775C13.6684 15.2708 13.7116 15.3805 13.7116 15.5065C13.7116 15.6092 13.6824 15.7013 13.6241 15.783C13.5681 15.8647 13.4899 15.9288 13.3896 15.9755C13.2892 16.0198 13.1737 16.042 13.0431 16.042ZM14.8903 16.021C14.7223 16.021 14.5928 15.972 14.5018 15.874C14.4108 15.776 14.3653 15.636 14.3653 15.454V14.3865H14.0188V14.124H14.1063C14.1857 14.124 14.2487 14.0983 14.2953 14.047C14.342 13.9933 14.3653 13.9268 14.3653 13.8475V13.69H14.6278V14.124H15.0408V14.3865H14.6278V15.454C14.6278 15.517 14.6372 15.573 14.6558 15.622C14.6745 15.6687 14.706 15.706 14.7503 15.734C14.797 15.762 14.8588 15.776 14.9358 15.776C14.9545 15.776 14.9767 15.7748 15.0023 15.7725C15.028 15.7702 15.0502 15.7678 15.0688 15.7655V16C15.0408 16.007 15.0093 16.0117 14.9743 16.014C14.9393 16.0187 14.9113 16.021 14.8903 16.021ZM15.5298 16V14.124H15.7923V14.432L15.7573 14.3865C15.8016 14.2978 15.8681 14.2278 15.9568 14.1765C16.0478 14.1252 16.1574 14.0995 16.2858 14.0995H16.4048V14.362H16.2403C16.1049 14.362 15.9964 14.404 15.9148 14.488C15.8331 14.572 15.7923 14.691 15.7923 14.845V16H15.5298ZM16.7124 16V14.124H16.9749V16H16.7124ZM16.7124 13.7775V13.3925H16.9749V13.7775H16.7124ZM17.5122 16V14.124H17.7747V14.488L17.7152 14.474C17.7618 14.3527 17.8377 14.257 17.9427 14.187C18.05 14.117 18.1737 14.082 18.3137 14.082C18.4467 14.082 18.5657 14.1123 18.6707 14.173C18.778 14.2337 18.862 14.3177 18.9227 14.425C18.9857 14.53 19.0172 14.649 19.0172 14.782V16H18.7547V14.8835C18.7547 14.7692 18.7337 14.6723 18.6917 14.593C18.652 14.5137 18.5948 14.453 18.5202 14.411C18.4478 14.3667 18.3638 14.3445 18.2682 14.3445C18.1725 14.3445 18.0873 14.3667 18.0127 14.411C17.938 14.453 17.8797 14.5148 17.8377 14.5965C17.7957 14.6758 17.7747 14.7715 17.7747 14.8835V16H17.5122ZM20.4075 16.77C20.2792 16.77 20.1602 16.7502 20.0505 16.7105C19.9432 16.6708 19.8499 16.616 19.7705 16.546C19.6935 16.4783 19.634 16.399 19.592 16.308L19.8335 16.1785C19.8709 16.2672 19.9374 16.3442 20.033 16.4095C20.1287 16.4748 20.2512 16.5075 20.4005 16.5075C20.5149 16.5075 20.6199 16.4853 20.7155 16.441C20.8112 16.3967 20.8882 16.3313 20.9465 16.245C21.0049 16.1587 21.034 16.0525 21.034 15.9265V15.51L21.076 15.5485C21.0107 15.6838 20.9139 15.7888 20.7855 15.8635C20.6572 15.9358 20.5172 15.972 20.3655 15.972C20.1905 15.972 20.033 15.93 19.893 15.846C19.753 15.762 19.6422 15.6488 19.5605 15.5065C19.4812 15.3618 19.4415 15.202 19.4415 15.027C19.4415 14.8497 19.4812 14.6898 19.5605 14.5475C19.6422 14.4052 19.7519 14.292 19.8895 14.208C20.0295 14.124 20.1882 14.082 20.3655 14.082C20.5172 14.082 20.6549 14.117 20.7785 14.187C20.9045 14.257 21.0037 14.3515 21.076 14.4705L21.034 14.544V14.124H21.2965V15.9265C21.2965 16.0875 21.258 16.231 21.181 16.357C21.1064 16.4853 21.0014 16.5857 20.866 16.658C20.733 16.7327 20.5802 16.77 20.4075 16.77ZM20.3795 15.7095C20.5009 15.7095 20.6105 15.6792 20.7085 15.6185C20.8065 15.5555 20.8847 15.4727 20.943 15.37C21.0037 15.265 21.034 15.1507 21.034 15.027C21.034 14.9033 21.0037 14.7902 20.943 14.6875C20.8847 14.5825 20.8065 14.4997 20.7085 14.439C20.6105 14.376 20.5009 14.3445 20.3795 14.3445C20.2559 14.3445 20.1439 14.376 20.0435 14.439C19.9432 14.4997 19.8639 14.5813 19.8055 14.684C19.7495 14.7867 19.7215 14.901 19.7215 15.027C19.7215 15.1507 19.7495 15.265 19.8055 15.37C19.8639 15.4727 19.942 15.5555 20.04 15.6185C20.1404 15.6792 20.2535 15.7095 20.3795 15.7095ZM21.8184 15.8635V15.58L23.0644 15.0095V15.1145L21.8184 14.544V14.2605L23.2534 14.943V15.181L21.8184 15.8635Z"
          fill="#718060"/>
    <path d="M13.369 20.8635L11.934 20.181V19.943L13.369 19.2605V19.544L12.123 20.1145V20.0095L13.369 20.58V20.8635ZM13.6296 21.42L14.8126 18.536H15.1171L13.9341 21.42H13.6296ZM16.0435 21.042C15.8639 21.042 15.7064 20.9965 15.571 20.9055C15.4357 20.8145 15.3377 20.6908 15.277 20.5345L15.4975 20.4295C15.5512 20.5438 15.6259 20.6348 15.7215 20.7025C15.8195 20.7702 15.9269 20.804 16.0435 20.804C16.1555 20.804 16.25 20.7772 16.327 20.7235C16.404 20.6675 16.4425 20.5952 16.4425 20.5065C16.4425 20.4412 16.4239 20.3898 16.3865 20.3525C16.3492 20.3128 16.306 20.2825 16.257 20.2615C16.208 20.2405 16.1649 20.2253 16.1275 20.216L15.858 20.139C15.6854 20.09 15.5605 20.0212 15.4835 19.9325C15.4065 19.8438 15.368 19.7412 15.368 19.6245C15.368 19.5148 15.396 19.4192 15.452 19.3375C15.508 19.2558 15.5839 19.1928 15.6795 19.1485C15.7752 19.1042 15.8814 19.082 15.998 19.082C16.1567 19.082 16.3002 19.124 16.4285 19.208C16.5592 19.2897 16.6514 19.404 16.705 19.551L16.481 19.656C16.4344 19.551 16.3667 19.4693 16.278 19.411C16.1917 19.3503 16.0949 19.32 15.9875 19.32C15.8825 19.32 15.7985 19.3468 15.7355 19.4005C15.6725 19.4542 15.641 19.5218 15.641 19.6035C15.641 19.6665 15.6574 19.7167 15.69 19.754C15.7227 19.7913 15.76 19.8193 15.802 19.838C15.8464 19.8567 15.8849 19.8707 15.9175 19.88L16.229 19.971C16.3807 20.0153 16.4985 20.0842 16.5825 20.1775C16.6689 20.2708 16.712 20.3805 16.712 20.5065C16.712 20.6092 16.6829 20.7013 16.6245 20.783C16.5685 20.8647 16.4904 20.9288 16.39 20.9755C16.2897 21.0198 16.1742 21.042 16.0435 21.042ZM17.8908 21.021C17.7228 21.021 17.5933 20.972 17.5023 20.874C17.4113 20.776 17.3658 20.636 17.3658 20.454V19.3865H17.0193V19.124H17.1068C17.1861 19.124 17.2491 19.0983 17.2958 19.047C17.3425 18.9933 17.3658 18.9268 17.3658 18.8475V18.69H17.6283V19.124H18.0413V19.3865H17.6283V20.454C17.6283 20.517 17.6376 20.573 17.6563 20.622C17.675 20.6687 17.7065 20.706 17.7508 20.734C17.7975 20.762 17.8593 20.776 17.9363 20.776C17.955 20.776 17.9771 20.7748 18.0028 20.7725C18.0285 20.7702 18.0506 20.7678 18.0693 20.7655V21C18.0413 21.007 18.0098 21.0117 17.9748 21.014C17.9398 21.0187 17.9118 21.021 17.8908 21.021ZM18.5302 21V19.124H18.7927V19.432L18.7577 19.3865C18.8021 19.2978 18.8686 19.2278 18.9572 19.1765C19.0482 19.1252 19.1579 19.0995 19.2862 19.0995H19.4052V19.362H19.2407C19.1054 19.362 18.9969 19.404 18.9152 19.488C18.8336 19.572 18.7927 19.691 18.7927 19.845V21H18.5302ZM19.7129 21V19.124H19.9754V21H19.7129ZM19.7129 18.7775V18.3925H19.9754V18.7775H19.7129ZM20.5127 21V19.124H20.7752V19.488L20.7157 19.474C20.7623 19.3527 20.8382 19.257 20.9432 19.187C21.0505 19.117 21.1742 19.082 21.3142 19.082C21.4472 19.082 21.5662 19.1123 21.6712 19.173C21.7785 19.2337 21.8625 19.3177 21.9232 19.425C21.9862 19.53 22.0177 19.649 22.0177 19.782V21H21.7552V19.8835C21.7552 19.7692 21.7342 19.6723 21.6922 19.593C21.6525 19.5137 21.5953 19.453 21.5207 19.411C21.4483 19.3667 21.3643 19.3445 21.2687 19.3445C21.173 19.3445 21.0878 19.3667 21.0132 19.411C20.9385 19.453 20.8802 19.5148 20.8382 19.5965C20.7962 19.6758 20.7752 19.7715 20.7752 19.8835V21H20.5127ZM23.408 21.77C23.2797 21.77 23.1607 21.7502 23.051 21.7105C22.9437 21.6708 22.8503 21.616 22.771 21.546C22.694 21.4783 22.6345 21.399 22.5925 21.308L22.834 21.1785C22.8713 21.2672 22.9378 21.3442 23.0335 21.4095C23.1292 21.4748 23.2517 21.5075 23.401 21.5075C23.5153 21.5075 23.6203 21.4853 23.716 21.441C23.8117 21.3967 23.8887 21.3313 23.947 21.245C24.0053 21.1587 24.0345 21.0525 24.0345 20.9265V20.51L24.0765 20.5485C24.0112 20.6838 23.9143 20.7888 23.786 20.8635C23.6577 20.9358 23.5177 20.972 23.366 20.972C23.191 20.972 23.0335 20.93 22.8935 20.846C22.7535 20.762 22.6427 20.6488 22.561 20.5065C22.4817 20.3618 22.442 20.202 22.442 20.027C22.442 19.8497 22.4817 19.6898 22.561 19.5475C22.6427 19.4052 22.7523 19.292 22.89 19.208C23.03 19.124 23.1887 19.082 23.366 19.082C23.5177 19.082 23.6553 19.117 23.779 19.187C23.905 19.257 24.0042 19.3515 24.0765 19.4705L24.0345 19.544V19.124H24.297V20.9265C24.297 21.0875 24.2585 21.231 24.1815 21.357C24.1068 21.4853 24.0018 21.5857 23.8665 21.658C23.7335 21.7327 23.5807 21.77 23.408 21.77ZM23.38 20.7095C23.5013 20.7095 23.611 20.6792 23.709 20.6185C23.807 20.5555 23.8852 20.4727 23.9435 20.37C24.0042 20.265 24.0345 20.1507 24.0345 20.027C24.0345 19.9033 24.0042 19.7902 23.9435 19.6875C23.8852 19.5825 23.807 19.4997 23.709 19.439C23.611 19.376 23.5013 19.3445 23.38 19.3445C23.2563 19.3445 23.1443 19.376 23.044 19.439C22.9437 19.4997 22.8643 19.5813 22.806 19.684C22.75 19.7867 22.722 19.901 22.722 20.027C22.722 20.1507 22.75 20.265 22.806 20.37C22.8643 20.4727 22.9425 20.5555 23.0405 20.6185C23.1408 20.6792 23.254 20.7095 23.38 20.7095ZM24.8189 20.8635V20.58L26.0649 20.0095V20.1145L24.8189 19.544V19.2605L26.2539 19.943V20.181L24.8189 20.8635Z"
          fill="#939393"/>
    <path fill-rule="evenodd" clip-rule="evenodd"
          d="M16.1191 24.078C16.2222 23.9915 16.3672 23.9755 16.4866 24.0373L21.9284 26.8557C22.0476 26.9174 22.1181 27.0446 22.1074 27.1784C22.0966 27.3121 22.0067 27.4264 21.8792 27.4683L19.5943 28.2195L18.4577 30.3393C18.3943 30.4576 18.2661 30.5263 18.1325 30.5137C17.9989 30.501 17.8859 30.4095 17.8458 30.2814L16.0152 24.4329C15.975 24.3045 16.016 24.1645 16.1191 24.078ZM16.8904 24.9972L18.245 29.3251L19.0697 27.787C19.1102 27.7116 19.1781 27.6546 19.2594 27.6278L20.9173 27.0828L16.8904 24.9972Z"
          fill="#6A962D"/>
    <path d="M30.6971 32V29.3925H31.1731V30.53H32.2826V29.3925H32.7621V32H32.2826V30.95H31.1731V32H30.6971Z"
          fill="#8DC63F"/>
    <path d="M33.32 32V29.3925H35V29.655H33.6V30.5615H34.93V30.824H33.6V31.7375H35V32H33.32Z" fill="white"/>
    <defs>
        <linearGradient id="paint0_linear_21_5" x1="20.75" y1="8" x2="20.75" y2="27" gradientUnits="userSpaceOnUse">
            <stop stop-color="#678838"/>
            <stop offset="0.75" stop-color="#0A0B09"/>
        </linearGradient>
        <linearGradient id="paint1_linear_21_5" x1="20.75" y1="8" x2="20.75" y2="28" gradientUnits="userSpaceOnUse">
            <stop stop-color="#0A0B09" stop-opacity="0"/>
            <stop offset="1" stop-color="#0A0B09"/>
        </linearGradient>
    </defs>
</svg>
